<svg width="312" height="203" viewBox="0 0 312 203" fill="none" xmlns="http://www.w3.org/2000/svg">
<path d="M282.958 182.348C285.943 183.674 287.287 187.243 285.342 189.866C283.244 192.695 280.656 195.168 277.677 197.17C273.02 200.299 267.581 202.159 261.928 202.556C256.275 202.952 250.615 201.871 245.541 199.424C240.467 196.977 236.165 193.255 233.084 188.647C230.003 184.039 228.256 178.714 228.026 173.228C227.796 167.743 229.092 162.298 231.777 157.463C234.463 152.629 238.44 148.581 243.293 145.744C246.521 143.857 250.059 142.551 253.735 141.875C256.81 141.309 259.386 143.871 259.415 146.998C259.443 150.128 256.881 152.611 253.877 153.489C252.292 153.953 250.766 154.608 249.336 155.444C246.277 157.232 243.77 159.783 242.077 162.831C240.384 165.879 239.567 169.311 239.712 172.769C239.857 176.227 240.958 179.584 242.9 182.489C244.843 185.394 247.555 187.74 250.753 189.282C253.952 190.825 257.519 191.506 261.083 191.256C264.647 191.006 268.075 189.834 271.011 187.861C272.348 186.963 273.56 185.914 274.624 184.741C276.745 182.404 280.074 181.066 282.958 182.348Z" fill="#FF5959"/>
<circle cx="287" cy="118" r="11" fill="#FF5959"/>
<path d="M255.179 125.629L236.08 134.145C233.48 135.305 232.667 138.603 234.431 140.838C235.623 142.347 237.661 142.899 239.452 142.197L251.662 137.41C253.25 136.787 255.028 136.87 256.551 137.637L260.025 139.387C262.706 140.737 263.976 143.86 263 146.698L255.331 168.982C254.609 171.082 255.104 173.408 256.62 175.03L260.182 178.844C261.439 180.19 263.245 180.884 265.08 180.726L287.948 178.764C291.805 178.433 294.961 181.787 294.396 185.617L293.342 192.768C292.892 195.817 294.826 198.711 297.816 199.462L297.949 199.496C301.23 200.32 304.542 198.271 305.27 194.968L310.427 171.57C311.227 167.941 308.569 164.465 304.858 164.285L285.878 163.366C281.98 163.177 279.297 159.376 280.425 155.64L284.651 141.635C285.542 138.682 284.049 135.534 281.197 134.356L259.913 125.564C258.393 124.936 256.682 124.959 255.179 125.629Z" fill="#FF5959"/>
<ellipse cx="220.578" cy="44.0537" rx="11.4115" ry="11.0537" fill="#00F0FF"/>
<path d="M234.167 74.4588C240.307 86.8024 245.382 58.5383 252.26 59.0274C251.646 65.0684 238.095 94.8218 231.956 82.4782C225.816 70.1346 217.614 63.277 222.35 57.7786C228.534 56.1258 228.027 62.1152 234.167 74.4588Z" fill="#00F0FF"/>
<path d="M197.12 54.0955C185.794 45.9225 193.243 75.2261 186.384 78.5744C184.338 72.5715 184.426 37.1811 195.752 45.3541C207.078 53.5271 217.998 55.4165 215.825 63.1917C210.574 68.1634 208.446 62.2685 197.12 54.0955Z" fill="#00F0FF"/>
<path d="M223.394 94.3611L198.073 75.1242C197.455 74.6542 196.56 75.0384 196.474 75.8105L195.119 88.0618C195.071 88.4978 195.313 88.9143 195.715 89.089L209.743 95.1804C210.3 95.4222 210.515 96.1002 210.199 96.6184L199.939 113.437C199.346 114.408 200.577 115.457 201.442 114.718L223.439 95.9175C223.924 95.5031 223.902 94.7469 223.394 94.3611Z" fill="#00F0FF"/>
<path d="M186.945 105.521C176.029 117.123 167.326 126.1 165.774 124.729C183.45 106.889 187.621 67.1114 194.161 88.5391C205.077 76.9366 193.78 73.6971 203.7 79.6299C208.772 83.9197 197.862 93.9182 186.945 105.521Z" fill="#00F0FF"/>
<ellipse rx="25.6581" ry="29.518" transform="matrix(0.952915 0.303238 -0.321189 0.947015 33.9308 80.2652)" fill="#FFCA42"/>
<ellipse rx="25.6581" ry="29.518" transform="matrix(0.952915 0.303238 -0.321189 0.947015 108.184 80.2652)" fill="#FFCA42"/>
<path d="M117.375 23.18C114.382 29.2772 112.405 25.6789 104.408 21.9964C96.4119 18.3139 92.3554 10.3859 95.3481 4.28863C98.3407 -1.80863 100.318 1.78966 108.315 5.47216C116.311 9.15466 120.368 17.0827 117.375 23.18Z" fill="#FFCA42"/>
<path d="M123.793 52.1408C108.227 47.0752 111.608 49.6983 100.168 41.693C88.728 33.6878 78.2234 28.8325 81.7964 24.0408C87.346 19.6893 90.6872 29.661 102.127 37.6662C113.567 45.6714 104.013 36.3677 123.793 52.1408Z" fill="#FFCA42"/>
<path d="M69.0021 64.5564C71.5676 80.2998 68.5805 69.8696 71.3 96.9157C69.6889 97.1621 65.2259 84.5991 62.6604 68.8557C60.0949 53.1123 54.8464 41.3642 60.9322 39.9038C67.8041 38.2547 66.4365 48.813 69.0021 64.5564Z" fill="#FFCA42"/>
<path d="M83.6684 52.0355C92.0011 60.2421 79.3156 71.0949 72.9872 73.1382C71.9904 74.0878 86.3826 62.5459 78.0499 54.3393C69.7172 46.1328 65.5367 39.5222 66.776 38.8955C73.4092 35.5414 75.3357 43.8289 83.6684 52.0355Z" fill="#FFCA42"/>
</svg>
