<svg width="306" height="143" viewBox="0 0 306 143" fill="none" xmlns="http://www.w3.org/2000/svg">
<g id="Group 9">
<g id="Group 8">
<path id="well" d="M272.131 102.636C275.142 104.017 276.501 107.615 274.657 110.368C272.057 114.251 268.743 117.629 264.874 120.312C259.355 124.141 252.908 126.417 246.209 126.902C239.509 127.387 232.802 126.064 226.789 123.071C220.775 120.077 215.676 115.523 212.025 109.885C208.373 104.247 206.303 97.7321 206.031 91.0204C205.758 84.3087 207.294 77.6471 210.477 71.7318C213.659 65.8164 218.373 60.8646 224.124 57.3938C228.155 54.9609 232.592 53.3183 237.199 52.5331C240.466 51.9763 243.193 54.6876 243.222 58.0012L243.239 59.8619C243.268 63.1755 240.563 65.811 237.363 66.6714C235.235 67.2433 233.189 68.1124 231.286 69.2609C227.66 71.4488 224.689 74.5704 222.683 78.2993C220.676 82.0282 219.709 86.2275 219.88 90.4584C220.052 94.6894 221.357 98.7965 223.659 102.351C225.961 105.905 229.175 108.775 232.966 110.662C236.756 112.549 240.984 113.383 245.208 113.077C249.431 112.772 253.495 111.337 256.974 108.923C258.8 107.657 260.43 106.144 261.822 104.437C263.916 101.869 267.427 100.478 270.439 101.86L272.131 102.636Z" fill="#FF5959"/>
<circle id="Ellipse 13" cx="281" cy="29" r="8" fill="#FF5959"/>
<path id="Vector 10" d="M238.584 32.6121L215.538 43.2204C212.443 44.6453 211.468 48.5735 213.538 51.2805C214.992 53.1821 217.538 53.8775 219.757 52.9794L234.435 47.0381C236.063 46.3793 237.897 46.4665 239.455 47.2764L244.957 50.1375C247.574 51.4983 248.813 54.5597 247.881 57.3581L238.108 86.6756C237.423 88.7296 237.898 90.993 239.351 92.5985L244.496 98.2853C245.758 99.6801 247.601 100.402 249.475 100.236L278.46 97.6681C282.312 97.3268 285.476 100.665 284.93 104.493L283.259 116.19C282.827 119.214 284.736 122.08 287.693 122.846L289.935 123.427C293.241 124.285 296.595 122.213 297.308 118.872L304.028 87.3932C304.8 83.7786 302.152 80.3326 298.46 80.148L273.092 78.8796C269.22 78.686 266.545 74.9253 267.633 71.2037L273.505 51.1128C274.358 48.1961 272.895 45.1025 270.1 43.9104L243.447 32.5434C241.889 31.879 240.122 31.9039 238.584 32.6121Z" fill="#FF5959"/>
</g>
<g id="Group 7">
<circle id="Ellipse 8" cx="201.349" cy="30.5242" r="13.5242" fill="#00F0FF"/>
<path id="Ellipse 9" d="M217.454 67.7256C224.731 82.828 230.745 48.247 238.897 48.8453C238.169 56.2365 222.11 92.6398 214.833 77.5374C207.557 62.435 197.837 54.0448 203.449 47.3175C210.778 45.2952 210.178 52.6232 217.454 67.7256Z" fill="#00F0FF"/>
<path id="Ellipse 10" d="M173.548 42.8093C160.125 32.8097 168.953 68.6625 160.824 72.7592C158.399 65.4147 158.504 22.1146 171.926 32.1142C185.349 42.1139 198.291 44.4255 195.716 53.9384C189.492 60.0213 186.97 52.809 173.548 42.8093Z" fill="#00F0FF"/>
<path id="Vector 9" d="M204.911 92.2513L174.432 68.3458C173.814 67.8612 172.904 68.2453 172.82 69.0262L171.158 84.5429C171.112 84.9734 171.348 85.3848 171.743 85.5619L188.735 93.1792C189.28 93.4233 189.491 94.0867 189.187 94.6004L176.225 116.537C175.646 117.517 176.894 118.549 177.748 117.795L204.956 93.788C205.424 93.3745 205.403 92.6371 204.911 92.2513Z" fill="#00F0FF"/>
<path id="Ellipse 11" d="M161.489 105.729C148.552 119.924 138.238 130.907 136.398 129.23C157.346 107.403 162.29 58.7349 170.041 84.9516C182.978 70.756 169.589 66.7925 181.345 74.0512C187.357 79.2998 174.427 91.5329 161.489 105.729Z" fill="#00F0FF"/>
</g>
<g id="Group 6">
<ellipse id="Ellipse 1" cx="40.2124" cy="98.721" rx="30.5" ry="36" transform="rotate(18.1866 40.2124 98.721)" fill="#FFCA42"/>
<ellipse id="Ellipse 5" cx="128.212" cy="98.721" rx="30.5" ry="36" transform="rotate(18.1866 128.212 98.721)" fill="#FFCA42"/>
<path id="Ellipse 3" d="M139.105 28.877C135.558 36.337 133.215 31.9345 123.738 27.429C114.261 22.9234 109.453 13.2235 113 5.76348C116.547 -1.6965 118.89 2.706 128.367 7.21154C137.844 11.7171 142.652 21.417 139.105 28.877Z" fill="#FFCA42"/>
<path id="Ellipse 4" d="M146.711 64.3108C128.263 58.1131 132.27 61.3224 118.712 51.528C105.154 41.7336 92.7051 35.7932 96.9396 29.9305C103.517 24.6065 107.476 36.8068 121.034 46.6012C134.592 56.3956 123.269 45.0124 146.711 64.3108Z" fill="#FFCA42"/>
<path id="Ellipse 6" d="M81.7766 79.5C84.8171 98.762 81.277 86.0007 84.5 119.092C82.5906 119.393 77.3013 104.022 74.2609 84.7602C71.2204 65.4982 65.0004 51.1244 72.2128 49.3376C80.3569 47.3199 78.7361 60.238 81.7766 79.5Z" fill="#FFCA42"/>
<path id="Ellipse 7" d="M99.1586 64.1813C109.034 74.222 94 87.5004 86.5 90.0004C85.3187 91.1622 102.375 77.0407 92.5 67C82.6247 56.9593 77.6702 48.8713 79.1389 48.1046C87.0001 44.0008 89.2833 54.1405 99.1586 64.1813Z" fill="#FFCA42"/>
</g>
</g>
</svg>
